<?xml version="1.0" encoding="UTF-8" standalone="no"?><!DOCTYPE svg PUBLIC "-//W3C//DTD SVG 1.1//EN" "http://www.w3.org/Graphics/SVG/1.1/DTD/svg11.dtd"><svg width="100%" height="100%" viewBox="0 0 111 108" version="1.1" xmlns="http://www.w3.org/2000/svg" xmlns:xlink="http://www.w3.org/1999/xlink" xml:space="preserve" xmlns:serif="http://www.serif.com/" style="fill-rule:evenodd;clip-rule:evenodd;stroke-linejoin:round;stroke-miterlimit:2;"><path d="M51.351,0.849c2.345,-1.13 5.078,-1.13 7.423,0c8.415,4.056 28.86,13.909 37.271,17.963c2.344,1.129 4.045,3.264 4.624,5.801c2.077,9.109 7.13,31.264 9.207,40.372c0.579,2.535 -0.028,5.196 -1.649,7.229c-5.819,7.304 -19.973,25.066 -25.796,32.373c-1.622,2.035 -4.083,3.221 -6.686,3.221c-9.338,0 -32.027,0 -41.365,0c-2.603,0 -5.064,-1.186 -6.686,-3.221c-5.823,-7.307 -19.977,-25.069 -25.796,-32.373c-1.621,-2.033 -2.228,-4.694 -1.649,-7.229c2.077,-9.108 7.13,-31.263 9.207,-40.372c0.579,-2.537 2.28,-4.672 4.624,-5.801c8.411,-4.054 28.856,-13.907 37.271,-17.963Z" style="fill:#fff;"/><path d="M106.035,48.103l3.898,17.079c0.551,2.411 -0.027,4.94 -1.568,6.873c-5.783,7.251 -20.27,25.418 -26.052,32.669c-1.542,1.933 -3.879,3.059 -6.352,3.059l-17.518,-0l47.592,-59.68Zm-2.421,-10.608l-56.052,70.288l-9.689,-0l63.585,-79.734l2.156,9.446Zm-13.214,-21.373l5.84,2.812c0.384,0.185 0.751,0.399 1.097,0.638l-68.645,86.08c-0.311,-0.284 -0.601,-0.594 -0.867,-0.927l-4.041,-5.068l66.616,-83.535Zm-7.862,-3.786l-64.195,80.499l-4.844,-6.074l62.039,-77.796l7,3.371Zm-54.415,22.452c2.145,-2.689 6.069,-3.131 8.758,-0.987c2.689,2.145 3.131,6.069 0.987,8.758c-2.145,2.689 -6.069,3.131 -8.758,0.986c-2.689,-2.144 -3.131,-6.068 -0.987,-8.757Zm1.416,18.215l-21.48,26.936l-6.287,-7.883c-1.541,-1.933 -2.118,-4.462 -1.568,-6.873c2.063,-9.041 7.234,-31.695 9.297,-40.737c0.551,-2.41 2.168,-4.439 4.396,-5.511c8.356,-4.025 29.29,-14.106 37.646,-18.13c2.228,-1.073 4.822,-1.073 7.05,-0.001l9.084,4.375l-21.481,26.936c-0.928,-1.873 -2.271,-3.577 -4.011,-4.965c-6.36,-5.072 -15.641,-4.026 -20.713,2.334c-5.072,6.36 -4.026,15.641 2.334,20.713c1.741,1.388 3.7,2.318 5.733,2.806Z" style="fill:#016bba;"/></svg>